<svg width="377" height="327" viewBox="0 0 377 327" fill="none" xmlns="http://www.w3.org/2000/svg">
<g filter="url(#filter0_d_2_14)">
<rect x="4" y="24" width="369" height="295" rx="18" fill="#31A7B7"/>
</g>
<g style="mix-blend-mode:overlay" filter="url(#filter1_d_2_14)">
<rect x="22" y="38" width="334" height="266" rx="18" fill="#651C1C"/>
</g>
<g filter="url(#filter2_b_2_14)">
<ellipse cx="189" cy="171" rx="144" ry="129" fill="#FAAB4F"/>
<path d="M330 171C330 240.286 267.191 297 189 297C110.809 297 48 240.286 48 171C48 101.714 110.809 45 189 45C267.191 45 330 101.714 330 171Z" stroke="#414141" stroke-width="6"/>
</g>
<circle cx="37.5" cy="54.5" r="7.5" fill="#D9D9D9"/>
<circle cx="339.5" cy="54.5" r="7.5" fill="#D9D9D9"/>
<circle cx="339.5" cy="286.5" r="7.5" fill="#D9D9D9"/>
<circle cx="37.5" cy="286.5" r="7.5" fill="#D9D9D9"/>
<g filter="url(#filter3_d_2_14)">
<circle cx="189" cy="171" r="40" fill="#2E2E2E"/>
</g>
<path d="M42 0.5H77C79.4853 0.5 81.5 2.51472 81.5 5V23.5H37.5V5C37.5 2.51472 39.5147 0.5 42 0.5Z" fill="#404040" stroke="#565656"/>
<defs>
<filter id="filter0_d_2_14" x="0" y="24" width="377" height="303" filterUnits="userSpaceOnUse" color-interpolation-filters="sRGB">
<feFlood flood-opacity="0" result="BackgroundImageFix"/>
<feColorMatrix in="SourceAlpha" type="matrix" values="0 0 0 0 0 0 0 0 0 0 0 0 0 0 0 0 0 0 127 0" result="hardAlpha"/>
<feOffset dy="4"/>
<feGaussianBlur stdDeviation="2"/>
<feComposite in2="hardAlpha" operator="out"/>
<feColorMatrix type="matrix" values="0 0 0 0 0 0 0 0 0 0 0 0 0 0 0 0 0 0 0.25 0"/>
<feBlend mode="normal" in2="BackgroundImageFix" result="effect1_dropShadow_2_14"/>
<feBlend mode="normal" in="SourceGraphic" in2="effect1_dropShadow_2_14" result="shape"/>
</filter>
<filter id="filter1_d_2_14" x="18" y="38" width="342" height="274" filterUnits="userSpaceOnUse" color-interpolation-filters="sRGB">
<feFlood flood-opacity="0" result="BackgroundImageFix"/>
<feColorMatrix in="SourceAlpha" type="matrix" values="0 0 0 0 0 0 0 0 0 0 0 0 0 0 0 0 0 0 127 0" result="hardAlpha"/>
<feOffset dy="4"/>
<feGaussianBlur stdDeviation="2"/>
<feComposite in2="hardAlpha" operator="out"/>
<feColorMatrix type="matrix" values="0 0 0 0 0 0 0 0 0 0 0 0 0 0 0 0 0 0 0.25 0"/>
<feBlend mode="normal" in2="BackgroundImageFix" result="effect1_dropShadow_2_14"/>
<feBlend mode="normal" in="SourceGraphic" in2="effect1_dropShadow_2_14" result="shape"/>
</filter>
<filter id="filter2_b_2_14" x="41" y="38" width="296" height="266" filterUnits="userSpaceOnUse" color-interpolation-filters="sRGB">
<feFlood flood-opacity="0" result="BackgroundImageFix"/>
<feGaussianBlur in="BackgroundImageFix" stdDeviation="2"/>
<feComposite in2="SourceAlpha" operator="in" result="effect1_backgroundBlur_2_14"/>
<feBlend mode="normal" in="SourceGraphic" in2="effect1_backgroundBlur_2_14" result="shape"/>
</filter>
<filter id="filter3_d_2_14" x="145" y="131" width="88" height="88" filterUnits="userSpaceOnUse" color-interpolation-filters="sRGB">
<feFlood flood-opacity="0" result="BackgroundImageFix"/>
<feColorMatrix in="SourceAlpha" type="matrix" values="0 0 0 0 0 0 0 0 0 0 0 0 0 0 0 0 0 0 127 0" result="hardAlpha"/>
<feOffset dy="4"/>
<feGaussianBlur stdDeviation="2"/>
<feComposite in2="hardAlpha" operator="out"/>
<feColorMatrix type="matrix" values="0 0 0 0 0 0 0 0 0 0 0 0 0 0 0 0 0 0 0.25 0"/>
<feBlend mode="normal" in2="BackgroundImageFix" result="effect1_dropShadow_2_14"/>
<feBlend mode="normal" in="SourceGraphic" in2="effect1_dropShadow_2_14" result="shape"/>
</filter>
</defs>
</svg>
